<svg width="1398.1000000000001" height="784.3000000000001" xmlns="http://www.w3.org/2000/svg" xmlns:xlink="http://www.w3.org/1999/xlink"><line x1="682.421875" y1="7.0" x2="682.421875" y2="31.0" style="stroke:black; stroke-width:1px;" />
<line x1="682.421875" y1="38.0" x2="515.28125" y2="62.0" style="stroke:black; stroke-width:1px;" />
<line x1="515.28125" y1="69.0" x2="515.28125" y2="93.0" style="stroke:black; stroke-width:1px;" />
<line x1="515.28125" y1="100.0" x2="208.0" y2="124.0" style="stroke:black; stroke-width:1px;" />
<line x1="208.0" y1="131.0" x2="11.5" y2="155.0" style="stroke:black; stroke-width:1px;" />
<line x1="208.0" y1="131.0" x2="73.0" y2="155.0" style="stroke:black; stroke-width:1px;" />
<line x1="73.0" y1="162.0" x2="73.0" y2="186.0" style="stroke:black; stroke-width:1px;" />
<line x1="73.0" y1="193.0" x2="73.0" y2="217.0" style="stroke:black; stroke-width:1px;" />
<line x1="208.0" y1="131.0" x2="285.0" y2="155.0" style="stroke:black; stroke-width:1px;" />
<line x1="285.0" y1="162.0" x2="184.0" y2="186.0" style="stroke:black; stroke-width:1px;" />
<line x1="285.0" y1="162.0" x2="285.0" y2="186.0" style="stroke:black; stroke-width:1px;" />
<line x1="285.0" y1="193.0" x2="187.5" y2="217.0" style="stroke:black; stroke-width:1px;" />
<line x1="187.5" y1="224.0" x2="90.0" y2="248.0" style="stroke:black; stroke-width:1px;" />
<line x1="90.0" y1="255.0" x2="90.0" y2="279.0" style="stroke:black; stroke-width:1px;" />
<line x1="90.0" y1="286.0" x2="90.0" y2="310.0" style="stroke:black; stroke-width:1px;" />
<line x1="90.0" y1="317.0" x2="90.0" y2="341.0" style="stroke:black; stroke-width:1px;" />
<line x1="187.5" y1="224.0" x2="191.0" y2="248.0" style="stroke:black; stroke-width:1px;" />
<line x1="187.5" y1="224.0" x2="285.0" y2="248.0" style="stroke:black; stroke-width:1px;" />
<line x1="285.0" y1="255.0" x2="285.0" y2="279.0" style="stroke:black; stroke-width:1px;" />
<line x1="285.0" y1="286.0" x2="285.0" y2="310.0" style="stroke:black; stroke-width:1px;" />
<line x1="285.0" y1="193.0" x2="288.5" y2="217.0" style="stroke:black; stroke-width:1px;" />
<line x1="285.0" y1="193.0" x2="382.5" y2="217.0" style="stroke:black; stroke-width:1px;" />
<line x1="382.5" y1="224.0" x2="382.5" y2="248.0" style="stroke:black; stroke-width:1px;" />
<line x1="382.5" y1="255.0" x2="382.5" y2="279.0" style="stroke:black; stroke-width:1px;" />
<line x1="285.0" y1="162.0" x2="386.0" y2="186.0" style="stroke:black; stroke-width:1px;" />
<line x1="208.0" y1="131.0" x2="404.5" y2="155.0" style="stroke:black; stroke-width:1px;" />
<line x1="404.5" y1="162.0" x2="404.5" y2="186.0" style="stroke:black; stroke-width:1px;" />
<line x1="515.28125" y1="100.0" x2="733.0625" y2="124.0" style="stroke:black; stroke-width:1px;" />
<line x1="733.0625" y1="131.0" x2="733.0625" y2="155.0" style="stroke:black; stroke-width:1px;" />
<line x1="733.0625" y1="162.0" x2="606.875" y2="186.0" style="stroke:black; stroke-width:1px;" />
<line x1="606.875" y1="193.0" x2="517.5" y2="217.0" style="stroke:black; stroke-width:1px;" />
<line x1="517.5" y1="224.0" x2="481.25" y2="248.0" style="stroke:black; stroke-width:1px;" />
<line x1="481.25" y1="255.0" x2="481.25" y2="279.0" style="stroke:black; stroke-width:1px;" />
<line x1="481.25" y1="286.0" x2="481.25" y2="310.0" style="stroke:black; stroke-width:1px;" />
<line x1="481.25" y1="317.0" x2="420.5" y2="341.0" style="stroke:black; stroke-width:1px;" />
<line x1="481.25" y1="317.0" x2="468.0" y2="341.0" style="stroke:black; stroke-width:1px;" />
<line x1="468.0" y1="348.0" x2="468.0" y2="372.0" style="stroke:black; stroke-width:1px;" />
<line x1="468.0" y1="379.0" x2="468.0" y2="403.0" style="stroke:black; stroke-width:1px;" />
<line x1="481.25" y1="317.0" x2="500.0" y2="341.0" style="stroke:black; stroke-width:1px;" />
<line x1="481.25" y1="317.0" x2="542.0" y2="341.0" style="stroke:black; stroke-width:1px;" />
<line x1="542.0" y1="348.0" x2="542.0" y2="372.0" style="stroke:black; stroke-width:1px;" />
<line x1="542.0" y1="379.0" x2="542.0" y2="403.0" style="stroke:black; stroke-width:1px;" />
<line x1="517.5" y1="224.0" x2="553.75" y2="248.0" style="stroke:black; stroke-width:1px;" />
<line x1="553.75" y1="255.0" x2="553.75" y2="279.0" style="stroke:black; stroke-width:1px;" />
<line x1="553.75" y1="286.0" x2="553.75" y2="310.0" style="stroke:black; stroke-width:1px;" />
<line x1="606.875" y1="193.0" x2="623.75" y2="217.0" style="stroke:black; stroke-width:1px;" />
<line x1="623.75" y1="224.0" x2="623.75" y2="248.0" style="stroke:black; stroke-width:1px;" />
<line x1="623.75" y1="255.0" x2="623.75" y2="279.0" style="stroke:black; stroke-width:1px;" />
<line x1="623.75" y1="286.0" x2="586.75" y2="310.0" style="stroke:black; stroke-width:1px;" />
<line x1="586.75" y1="317.0" x2="586.75" y2="341.0" style="stroke:black; stroke-width:1px;" />
<line x1="586.75" y1="348.0" x2="586.75" y2="372.0" style="stroke:black; stroke-width:1px;" />
<line x1="623.75" y1="286.0" x2="623.25" y2="310.0" style="stroke:black; stroke-width:1px;" />
<line x1="623.75" y1="286.0" x2="660.75" y2="310.0" style="stroke:black; stroke-width:1px;" />
<line x1="660.75" y1="317.0" x2="660.75" y2="341.0" style="stroke:black; stroke-width:1px;" />
<line x1="660.75" y1="348.0" x2="660.75" y2="372.0" style="stroke:black; stroke-width:1px;" />
<line x1="660.75" y1="379.0" x2="660.75" y2="403.0" style="stroke:black; stroke-width:1px;" />
<line x1="606.875" y1="193.0" x2="696.25" y2="217.0" style="stroke:black; stroke-width:1px;" />
<line x1="696.25" y1="224.0" x2="696.25" y2="248.0" style="stroke:black; stroke-width:1px;" />
<line x1="696.25" y1="255.0" x2="696.25" y2="279.0" style="stroke:black; stroke-width:1px;" />
<line x1="733.0625" y1="162.0" x2="786.75" y2="186.0" style="stroke:black; stroke-width:1px;" />
<line x1="786.75" y1="193.0" x2="786.75" y2="217.0" style="stroke:black; stroke-width:1px;" />
<line x1="786.75" y1="224.0" x2="759.5" y2="248.0" style="stroke:black; stroke-width:1px;" />
<line x1="786.75" y1="224.0" x2="814.0" y2="248.0" style="stroke:black; stroke-width:1px;" />
<line x1="814.0" y1="255.0" x2="814.0" y2="279.0" style="stroke:black; stroke-width:1px;" />
<line x1="814.0" y1="286.0" x2="814.0" y2="310.0" style="stroke:black; stroke-width:1px;" />
<line x1="814.0" y1="317.0" x2="814.0" y2="341.0" style="stroke:black; stroke-width:1px;" />
<line x1="814.0" y1="348.0" x2="814.0" y2="372.0" style="stroke:black; stroke-width:1px;" />
<line x1="733.0625" y1="162.0" x2="859.25" y2="186.0" style="stroke:black; stroke-width:1px;" />
<line x1="859.25" y1="193.0" x2="859.25" y2="217.0" style="stroke:black; stroke-width:1px;" />
<line x1="859.25" y1="224.0" x2="859.25" y2="248.0" style="stroke:black; stroke-width:1px;" />
<line x1="515.28125" y1="100.0" x2="822.5625" y2="124.0" style="stroke:black; stroke-width:1px;" />
<line x1="682.421875" y1="38.0" x2="849.5625" y2="62.0" style="stroke:black; stroke-width:1px;" />
<line x1="849.5625" y1="69.0" x2="849.5625" y2="93.0" style="stroke:black; stroke-width:1px;" />
<line x1="849.5625" y1="100.0" x2="849.5625" y2="124.0" style="stroke:black; stroke-width:1px;" />
<rect x="472.5" y="217.0" width="90.0" height="14.0" style="fill:orange; stroke:rgb(0,0,0);" rx="1"/>
<text x="474" y="226" style="font-family:sans-serif;font-size:10px;">
expression_list
</text>
<rect x="838.5625" y="93.0" width="22.0" height="14.0" style="fill:orange; stroke:rgb(0,0,0);" rx="1"/>
<text x="840" y="102" style="font-family:sans-serif;font-size:10px;">
crlf
</text>
<rect x="7.0" y="279.0" width="166.0" height="14.0" style="fill:orange; stroke:rgb(0,0,0);" rx="1"/>
<text x="9" y="288" style="font-family:sans-serif;font-size:10px;">
function_definition_param_id
</text>
<rect x="449.5" y="341.0" width="37.0" height="14.0" style="fill:orange; stroke:rgb(0,0,0);" rx="1"/>
<text x="451" y="350" style="font-family:sans-serif;font-size:10px;">
lvalue
</text>
<rect x="377.5" y="279.0" width="10.0" height="14.0" style="fill:orange; stroke:rgb(0,0,0);" rx="1"/>
<text x="379" y="288" style="font-family:sans-serif;font-size:10px;">
c
</text>
<rect x="513.5" y="341.0" width="57.0" height="14.0" style="fill:orange; stroke:rgb(0,0,0);" rx="1"/>
<text x="515" y="350" style="font-family:sans-serif;font-size:10px;">
int_result
</text>
<rect x="612.25" y="310.0" width="22.0" height="14.0" style="fill:orange; stroke:rgb(0,0,0);" rx="1"/>
<text x="614" y="319" style="font-family:sans-serif;font-size:10px;">
+=
</text>
<rect x="131.5" y="124.0" width="153.0" height="14.0" style="fill:orange; stroke:rgb(0,0,0);" rx="1"/>
<text x="133" y="133" style="font-family:sans-serif;font-size:10px;">
function_definition_header
</text>
<rect x="278.0" y="279.0" width="14.0" height="14.0" style="fill:orange; stroke:rgb(0,0,0);" rx="1"/>
<text x="280" y="288" style="font-family:sans-serif;font-size:10px;">
id
</text>
<rect x="481.78125" y="62.0" width="67.0" height="14.0" style="fill:orange; stroke:rgb(0,0,0);" rx="1"/>
<text x="483" y="71" style="font-family:sans-serif;font-size:10px;">
expression
</text>
<rect x="536.5" y="403.0" width="11.0" height="14.0" style="fill:orange; stroke:rgb(0,0,0);" rx="1"/>
<text x="538" y="412" style="font-family:sans-serif;font-size:10px;">
1
</text>
<rect x="753.25" y="186.0" width="67.0" height="14.0" style="fill:orange; stroke:rgb(0,0,0);" rx="1"/>
<text x="755" y="195" style="font-family:sans-serif;font-size:10px;">
expression
</text>
<rect x="521.75" y="248.0" width="64.0" height="14.0" style="fill:orange; stroke:rgb(0,0,0);" rx="1"/>
<text x="523" y="257" style="font-family:sans-serif;font-size:10px;">
terminator
</text>
<rect x="688.75" y="279.0" width="15.0" height="14.0" style="fill:orange; stroke:rgb(0,0,0);" rx="1"/>
<text x="690" y="288" style="font-family:sans-serif;font-size:10px;">
\n
</text>
<rect x="55.5" y="217.0" width="35.0" height="14.0" style="fill:orange; stroke:rgb(0,0,0);" rx="1"/>
<text x="57" y="226" style="font-family:sans-serif;font-size:10px;">
func1
</text>
<rect x="202.0" y="248.0" width="166.0" height="14.0" style="fill:orange; stroke:rgb(0,0,0);" rx="1"/>
<text x="204" y="257" style="font-family:sans-serif;font-size:10px;">
function_definition_param_id
</text>
<rect x="382.0" y="186.0" width="8.0" height="14.0" style="fill:orange; stroke:rgb(0,0,0);" rx="1"/>
<text x="384" y="195" style="font-family:sans-serif;font-size:10px;">
)
</text>
<rect x="561.875" y="186.0" width="90.0" height="14.0" style="fill:orange; stroke:rgb(0,0,0);" rx="1"/>
<text x="563" y="195" style="font-family:sans-serif;font-size:10px;">
expression_list
</text>
<rect x="810.0625" y="124.0" width="25.0" height="14.0" style="fill:orange; stroke:rgb(0,0,0);" rx="1"/>
<text x="812" y="133" style="font-family:sans-serif;font-size:10px;">
end
</text>
<rect x="542.75" y="279.0" width="22.0" height="14.0" style="fill:orange; stroke:rgb(0,0,0);" rx="1"/>
<text x="544" y="288" style="font-family:sans-serif;font-size:10px;">
crlf
</text>
<rect x="299.5" y="217.0" width="166.0" height="14.0" style="fill:orange; stroke:rgb(0,0,0);" rx="1"/>
<text x="301" y="226" style="font-family:sans-serif;font-size:10px;">
function_definition_param_id
</text>
<rect x="604.25" y="248.0" width="39.0" height="14.0" style="fill:orange; stroke:rgb(0,0,0);" rx="1"/>
<text x="606" y="257" style="font-family:sans-serif;font-size:10px;">
rvalue
</text>
<rect x="493.5" y="341.0" width="13.0" height="14.0" style="fill:orange; stroke:rgb(0,0,0);" rx="1"/>
<text x="495" y="350" style="font-family:sans-serif;font-size:10px;">
=
</text>
<rect x="664.25" y="217.0" width="64.0" height="14.0" style="fill:orange; stroke:rgb(0,0,0);" rx="1"/>
<text x="666" y="226" style="font-family:sans-serif;font-size:10px;">
terminator
</text>
<rect x="637.421875" y="31.0" width="90.0" height="14.0" style="fill:orange; stroke:rgb(0,0,0);" rx="1"/>
<text x="639" y="40" style="font-family:sans-serif;font-size:10px;">
expression_list
</text>
<rect x="461.78125" y="93.0" width="107.0" height="14.0" style="fill:orange; stroke:rgb(0,0,0);" rx="1"/>
<text x="463" y="102" style="font-family:sans-serif;font-size:10px;">
function_definition
</text>
<rect x="462.5" y="403.0" width="11.0" height="14.0" style="fill:orange; stroke:rgb(0,0,0);" rx="1"/>
<text x="464" y="412" style="font-family:sans-serif;font-size:10px;">
a
</text>
<rect x="581.25" y="372.0" width="11.0" height="14.0" style="fill:orange; stroke:rgb(0,0,0);" rx="1"/>
<text x="583" y="381" style="font-family:sans-serif;font-size:10px;">
a
</text>
<rect x="655.25" y="403.0" width="11.0" height="14.0" style="fill:orange; stroke:rgb(0,0,0);" rx="1"/>
<text x="657" y="412" style="font-family:sans-serif;font-size:10px;">
1
</text>
<rect x="667.421875" y="0.0" width="30.0" height="14.0" style="fill:orange; stroke:rgb(0,0,0);" rx="1"/>
<text x="669" y="9" style="font-family:sans-serif;font-size:10px;">
prog
</text>
<rect x="447.75" y="248.0" width="67.0" height="14.0" style="fill:orange; stroke:rgb(0,0,0);" rx="1"/>
<text x="449" y="257" style="font-family:sans-serif;font-size:10px;">
expression
</text>
<rect x="769.0" y="279.0" width="90.0" height="14.0" style="fill:orange; stroke:rgb(0,0,0);" rx="1"/>
<text x="771" y="288" style="font-family:sans-serif;font-size:10px;">
dynamic_result
</text>
<rect x="786.0" y="248.0" width="56.0" height="14.0" style="fill:orange; stroke:rgb(0,0,0);" rx="1"/>
<text x="788" y="257" style="font-family:sans-serif;font-size:10px;">
all_result
</text>
<rect x="807.0" y="341.0" width="14.0" height="14.0" style="fill:orange; stroke:rgb(0,0,0);" rx="1"/>
<text x="809" y="350" style="font-family:sans-serif;font-size:10px;">
id
</text>
<rect x="842.0625" y="124.0" width="15.0" height="14.0" style="fill:orange; stroke:rgb(0,0,0);" rx="1"/>
<text x="844" y="133" style="font-family:sans-serif;font-size:10px;">
\n
</text>
<rect x="398.5" y="341.0" width="44.0" height="14.0" style="fill:orange; stroke:rgb(0,0,0);" rx="1"/>
<text x="400" y="350" style="font-family:sans-serif;font-size:10px;">
Integer
</text>
<rect x="568.25" y="310.0" width="37.0" height="14.0" style="fill:orange; stroke:rgb(0,0,0);" rx="1"/>
<text x="570" y="319" style="font-family:sans-serif;font-size:10px;">
lvalue
</text>
<rect x="97.5" y="217.0" width="180.0" height="14.0" style="fill:orange; stroke:rgb(0,0,0);" rx="1"/>
<text x="99" y="226" style="font-family:sans-serif;font-size:10px;">
function_definition_params_list
</text>
<rect x="279.5" y="310.0" width="11.0" height="14.0" style="fill:orange; stroke:rgb(0,0,0);" rx="1"/>
<text x="281" y="319" style="font-family:sans-serif;font-size:10px;">
b
</text>
<rect x="851.75" y="248.0" width="15.0" height="14.0" style="fill:orange; stroke:rgb(0,0,0);" rx="1"/>
<text x="853" y="257" style="font-family:sans-serif;font-size:10px;">
\n
</text>
<rect x="579.75" y="341.0" width="14.0" height="14.0" style="fill:orange; stroke:rgb(0,0,0);" rx="1"/>
<text x="581" y="350" style="font-family:sans-serif;font-size:10px;">
id
</text>
<rect x="740.0" y="248.0" width="39.0" height="14.0" style="fill:orange; stroke:rgb(0,0,0);" rx="1"/>
<text x="742" y="257" style="font-family:sans-serif;font-size:10px;">
return
</text>
<rect x="180.0" y="186.0" width="8.0" height="14.0" style="fill:orange; stroke:rgb(0,0,0);" rx="1"/>
<text x="182" y="195" style="font-family:sans-serif;font-size:10px;">
(
</text>
<rect x="546.25" y="310.0" width="15.0" height="14.0" style="fill:orange; stroke:rgb(0,0,0);" rx="1"/>
<text x="548" y="319" style="font-family:sans-serif;font-size:10px;">
\n
</text>
<rect x="641.25" y="310.0" width="39.0" height="14.0" style="fill:orange; stroke:rgb(0,0,0);" rx="1"/>
<text x="643" y="319" style="font-family:sans-serif;font-size:10px;">
rvalue
</text>
<rect x="808.5" y="372.0" width="11.0" height="14.0" style="fill:orange; stroke:rgb(0,0,0);" rx="1"/>
<text x="810" y="381" style="font-family:sans-serif;font-size:10px;">
a
</text>
<rect x="375.5" y="248.0" width="14.0" height="14.0" style="fill:orange; stroke:rgb(0,0,0);" rx="1"/>
<text x="377" y="257" style="font-family:sans-serif;font-size:10px;">
id
</text>
<rect x="284.5" y="217.0" width="8.0" height="14.0" style="fill:orange; stroke:rgb(0,0,0);" rx="1"/>
<text x="286" y="226" style="font-family:sans-serif;font-size:10px;">
,
</text>
<rect x="663.0625" y="124.0" width="140.0" height="14.0" style="fill:orange; stroke:rgb(0,0,0);" rx="1"/>
<text x="665" y="133" style="font-family:sans-serif;font-size:10px;">
function_definition_body
</text>
<rect x="788.5" y="310.0" width="51.0" height="14.0" style="fill:orange; stroke:rgb(0,0,0);" rx="1"/>
<text x="790" y="319" style="font-family:sans-serif;font-size:10px;">
dynamic
</text>
<rect x="632.25" y="341.0" width="57.0" height="14.0" style="fill:orange; stroke:rgb(0,0,0);" rx="1"/>
<text x="634" y="350" style="font-family:sans-serif;font-size:10px;">
int_result
</text>
<rect x="588.25" y="279.0" width="71.0" height="14.0" style="fill:orange; stroke:rgb(0,0,0);" rx="1"/>
<text x="590" y="288" style="font-family:sans-serif;font-size:10px;">
assignment
</text>
<rect x="646.75" y="372.0" width="28.0" height="14.0" style="fill:orange; stroke:rgb(0,0,0);" rx="1"/>
<text x="648" y="381" style="font-family:sans-serif;font-size:10px;">
int_t
</text>
<rect x="0.5" y="155.0" width="22.0" height="14.0" style="fill:orange; stroke:rgb(0,0,0);" rx="1"/>
<text x="2" y="164" style="font-family:sans-serif;font-size:10px;">
def
</text>
<rect x="195.0" y="186.0" width="180.0" height="14.0" style="fill:orange; stroke:rgb(0,0,0);" rx="1"/>
<text x="197" y="195" style="font-family:sans-serif;font-size:10px;">
function_definition_params_list
</text>
<rect x="84.5" y="341.0" width="11.0" height="14.0" style="fill:orange; stroke:rgb(0,0,0);" rx="1"/>
<text x="86" y="350" style="font-family:sans-serif;font-size:10px;">
a
</text>
<rect x="735.25" y="217.0" width="103.0" height="14.0" style="fill:orange; stroke:rgb(0,0,0);" rx="1"/>
<text x="737" y="226" style="font-family:sans-serif;font-size:10px;">
return_statement
</text>
<rect x="817.5625" y="62.0" width="64.0" height="14.0" style="fill:orange; stroke:rgb(0,0,0);" rx="1"/>
<text x="819" y="71" style="font-family:sans-serif;font-size:10px;">
terminator
</text>
<rect x="435.75" y="310.0" width="91.0" height="14.0" style="fill:orange; stroke:rgb(0,0,0);" rx="1"/>
<text x="437" y="319" style="font-family:sans-serif;font-size:10px;">
int_assignment
</text>
<rect x="66.0" y="186.0" width="14.0" height="14.0" style="fill:orange; stroke:rgb(0,0,0);" rx="1"/>
<text x="68" y="195" style="font-family:sans-serif;font-size:10px;">
id
</text>
<rect x="461.75" y="279.0" width="39.0" height="14.0" style="fill:orange; stroke:rgb(0,0,0);" rx="1"/>
<text x="463" y="288" style="font-family:sans-serif;font-size:10px;">
rvalue
</text>
<rect x="83.0" y="310.0" width="14.0" height="14.0" style="fill:orange; stroke:rgb(0,0,0);" rx="1"/>
<text x="85" y="319" style="font-family:sans-serif;font-size:10px;">
id
</text>
<rect x="187.0" y="248.0" width="8.0" height="14.0" style="fill:orange; stroke:rgb(0,0,0);" rx="1"/>
<text x="189" y="257" style="font-family:sans-serif;font-size:10px;">
,
</text>
<rect x="528.0" y="372.0" width="28.0" height="14.0" style="fill:orange; stroke:rgb(0,0,0);" rx="1"/>
<text x="530" y="381" style="font-family:sans-serif;font-size:10px;">
int_t
</text>
<rect x="827.25" y="186.0" width="64.0" height="14.0" style="fill:orange; stroke:rgb(0,0,0);" rx="1"/>
<text x="829" y="195" style="font-family:sans-serif;font-size:10px;">
terminator
</text>
<rect x="688.0625" y="155.0" width="90.0" height="14.0" style="fill:orange; stroke:rgb(0,0,0);" rx="1"/>
<text x="690" y="164" style="font-family:sans-serif;font-size:10px;">
expression_list
</text>
<rect x="397.0" y="186.0" width="15.0" height="14.0" style="fill:orange; stroke:rgb(0,0,0);" rx="1"/>
<text x="399" y="195" style="font-family:sans-serif;font-size:10px;">
\n
</text>
<rect x="29.5" y="155.0" width="87.0" height="14.0" style="fill:orange; stroke:rgb(0,0,0);" rx="1"/>
<text x="31" y="164" style="font-family:sans-serif;font-size:10px;">
function_name
</text>
<rect x="685.25" y="248.0" width="22.0" height="14.0" style="fill:orange; stroke:rgb(0,0,0);" rx="1"/>
<text x="687" y="257" style="font-family:sans-serif;font-size:10px;">
crlf
</text>
<rect x="0.0" y="248.0" width="180.0" height="14.0" style="fill:orange; stroke:rgb(0,0,0);" rx="1"/>
<text x="2" y="257" style="font-family:sans-serif;font-size:10px;">
function_definition_params_list
</text>
<rect x="461.0" y="372.0" width="14.0" height="14.0" style="fill:orange; stroke:rgb(0,0,0);" rx="1"/>
<text x="463" y="381" style="font-family:sans-serif;font-size:10px;">
id
</text>
<rect x="590.25" y="217.0" width="67.0" height="14.0" style="fill:orange; stroke:rgb(0,0,0);" rx="1"/>
<text x="592" y="226" style="font-family:sans-serif;font-size:10px;">
expression
</text>
<rect x="206.5" y="155.0" width="157.0" height="14.0" style="fill:orange; stroke:rgb(0,0,0);" rx="1"/>
<text x="208" y="164" style="font-family:sans-serif;font-size:10px;">
function_definition_params
</text>
<rect x="848.25" y="217.0" width="22.0" height="14.0" style="fill:orange; stroke:rgb(0,0,0);" rx="1"/>
<text x="850" y="226" style="font-family:sans-serif;font-size:10px;">
crlf
</text>
<rect x="393.5" y="155.0" width="22.0" height="14.0" style="fill:orange; stroke:rgb(0,0,0);" rx="1"/>
<text x="395" y="164" style="font-family:sans-serif;font-size:10px;">
crlf
</text>
</svg>